<?xml version="1.0" encoding="UTF-8" standalone="no"?>
<svg
   xmlns:dc="http://purl.org/dc/elements/1.1/"
   xmlns:cc="http://creativecommons.org/ns#"
   xmlns:rdf="http://www.w3.org/1999/02/22-rdf-syntax-ns#"
   xmlns:svg="http://www.w3.org/2000/svg"
   xmlns="http://www.w3.org/2000/svg"
   xmlns:sodipodi="http://sodipodi.sourceforge.net/DTD/sodipodi-0.dtd"
   xmlns:inkscape="http://www.inkscape.org/namespaces/inkscape"
   width="125.0928mm"
   height="16.05139mm"
   viewBox="0 0 125.0928 16.05139"
   version="1.1"
   id="svg8"
   inkscape:version="1.0 (4035a4fb49, 2020-05-01)"
   sodipodi:docname="logo.svg">
  <defs
     id="defs2" />
  <sodipodi:namedview
     fit-margin-bottom="0"
     fit-margin-right="0"
     fit-margin-left="0"
     fit-margin-top="0"
     id="base"
     pagecolor="#ffffff"
     bordercolor="#666666"
     borderopacity="1.0"
     inkscape:pageopacity="0.0"
     inkscape:pageshadow="2"
     inkscape:zoom="1.4"
     inkscape:cx="94.464677"
     inkscape:cy="31.070889"
     inkscape:document-units="mm"
     inkscape:current-layer="layer1"
     inkscape:document-rotation="0"
     showgrid="false"
     inkscape:window-width="1920"
     inkscape:window-height="991"
     inkscape:window-x="-9"
     inkscape:window-y="-9"
     inkscape:window-maximized="1" />
  <metadata
     id="metadata5">
    <rdf:RDF>
      <cc:Work
         rdf:about="">
        <dc:format>image/svg+xml</dc:format>
        <dc:type
           rdf:resource="http://purl.org/dc/dcmitype/StillImage" />
        <dc:title />
      </cc:Work>
    </rdf:RDF>
  </metadata>
  <g
     transform="translate(-26.458332,-37.562364)"
     inkscape:label="Capa 1"
     inkscape:groupmode="layer"
     id="layer1">
    <g
       aria-label="¡Responde o Lárgate!"
       id="text12"
       style="font-style:normal;font-variant:normal;font-weight:normal;font-stretch:normal;font-size:19.7556px;line-height:1.25;font-family:Roulette;-inkscape-font-specification:'Roulette, Normal';font-variant-ligatures:normal;font-variant-caps:normal;font-variant-numeric:normal;font-variant-east-asian:normal;fill:#ffffff;fill-opacity:1;stroke:none;stroke-width:0.264583">
      <path
         d="m 30.789516,37.562334 q 0.472668,0 0.829581,0.33762 0.26045,0.241157 0.347266,0.67524 0.04823,0.221865 0.04823,0.356913 l -0.0096,0.04823 q -0.08682,0.5209 -0.434083,0.78135 -0.347266,0.250803 -0.704179,0.250803 -0.115755,0 -0.241157,-0.02894 Q 29.815241,39.78098 29.6609,38.92246 l -0.0096,-0.173633 q 0,-0.530546 0.347266,-0.877812 0.26045,-0.241157 0.482315,-0.270096 0.221864,-0.03858 0.308681,-0.03858 z m -0.549839,2.88424 q 0.347267,0 0.588424,0.5209 0.173633,0.385851 0.173633,0.993567 0,2.016075 -1.437297,6.202564 -0.279742,0.810289 -0.405144,1.070738 -0.192926,0.385852 -0.366559,0.819935 -0.289389,0.694533 -0.405144,0.868166 -0.308681,0.463022 -0.85852,0.463022 -0.491961,0 -0.781349,-0.347267 -0.289389,-0.347266 -0.289389,-0.713825 0,-0.173633 0.106109,-0.472668 l 0.173633,-0.453376 q 0.221865,-0.540192 0.308682,-0.906751 0.125401,-0.41479 0.578777,-1.697747 0.655948,-1.794209 1.543406,-4.533756 0.299035,-0.926043 0.491961,-1.311895 0.250804,-0.501607 0.578777,-0.501607 z"
         style="font-style:normal;font-variant:normal;font-weight:normal;font-stretch:normal;font-size:19.7556px;font-family:Roulette;-inkscape-font-specification:'Roulette, Normal';font-variant-ligatures:normal;font-variant-caps:normal;font-variant-numeric:normal;font-variant-east-asian:normal;fill:#ffffff;stroke-width:0.264583"
         id="path17" />
      <path
         d="m 33.760573,51.385466 q -0.154341,0 -0.327974,-0.04823 -0.848874,-0.366559 -1.099677,-1.774917 -0.04823,-0.347266 -0.04823,-0.771703 0,-1.61093 0.742765,-4.331184 0.33762,-1.27331 0.704179,-2.247585 0.366559,-0.974275 0.607716,-1.668808 l 0.106109,-0.308681 -0.08682,0.03859 q -1.003215,0.559485 -1.215433,1.225079 -0.01929,0.106109 -0.01929,0.15434 0,0.05788 0.04823,0.07717 0.154341,0.115755 0.154341,0.327973 0,0.18328 -0.241158,0.347267 -0.183279,0.125402 -0.424436,0.135048 -0.173634,-0.0096 -0.356913,-0.09646 -0.192926,-0.09646 -0.318328,-0.241157 -0.270096,-0.366559 -0.270096,-0.839227 0,-0.414791 0.202572,-0.916398 1.070739,-2.083598 3.800638,-2.700961 0.501607,-0.08682 1.11897,-0.08682 0.617362,0 1.061092,0.08682 1.900319,0.405144 2.643083,1.504821 0.289389,0.453376 0.511253,1.022507 0.163987,0.530546 0.163987,1.109323 0,0.684887 -0.231511,1.446943 -0.434083,1.408359 -1.61093,2.614145 -1.225079,1.234725 -2.536974,1.601284 -0.231511,0.06752 -0.231511,0.106109 0.01929,0.05788 0.33762,0.511253 0.742764,1.022507 1.668808,1.649516 0.366559,0.231511 0.453376,0.356912 0.09646,0.115756 0.09646,0.250804 0,0.231511 -0.154341,0.376205 -0.231511,0.250804 -0.887459,0.250804 h -0.163987 q -0.463022,0 -0.819934,-0.125402 -1.138262,-0.385852 -2.305463,-1.861734 -0.385852,-0.472668 -0.414791,-0.472668 -0.02894,0.02894 -0.05788,0.26045 -0.02894,0.221864 -0.04823,0.520899 -0.01929,0.299035 -0.01929,0.540193 0,0.472668 0.09646,0.810288 0.135048,0.41479 0.135048,0.578777 0,0.09646 -0.02894,0.163987 -0.154341,0.424437 -0.733118,0.424437 z m 1.890672,-5.729896 q 0.135048,0 0.221865,-0.03858 1.167201,-0.482314 1.938904,-1.360127 1.01286,-1.157554 1.205786,-2.565913 0.01929,-0.144694 0.01929,-0.289388 0,-0.385852 -0.173633,-0.733118 -0.221865,-0.482315 -0.771704,-0.684887 -0.733118,-0.299035 -1.485528,-0.299035 -0.511253,0 -0.569131,0.02894 0,0.03858 0.135048,0.154341 0.318327,0.279742 0.318327,0.723471 0,0.09646 -0.02894,0.221865 -0.01929,0.125402 -0.08682,0.347266 -0.06752,0.221865 -0.202572,0.627009 -0.212218,0.607716 -0.482315,1.437297 -0.260449,0.829581 -0.472668,1.504821 -0.202572,0.665594 -0.202572,0.70418 0.04823,0.125401 0.279743,0.173633 0.241157,0.04823 0.356912,0.04823 z"
         style="font-style:normal;font-variant:normal;font-weight:normal;font-stretch:normal;font-size:19.7556px;font-family:Roulette;-inkscape-font-specification:'Roulette, Normal';font-variant-ligatures:normal;font-variant-caps:normal;font-variant-numeric:normal;font-variant-east-asian:normal;fill:#ffffff;stroke-width:0.264583"
         id="path19" />
      <path
         d="m 43.156058,49.051064 q -0.366559,0 -0.713825,-0.106109 -1.070738,-0.395498 -1.466236,-1.437297 -0.106109,-0.376206 -0.106109,-1.012861 0,-0.366559 0.03858,-0.684886 0.347266,-2.363341 1.94855,-4.012856 0.85852,-0.887459 1.543407,-0.887459 0.75241,0 1.080384,0.424437 0.26045,0.327974 0.26045,0.839227 0,0.877812 -0.5209,1.813502 -0.790996,1.418005 -2.035367,1.630223 -0.154341,0.59807 -0.154341,1.099677 0,0.569131 0.356913,0.790996 0.125402,0.07717 0.327974,0.07717 0.347266,-0.0096 0.926044,-0.289389 0.511253,-0.260449 1.022506,-0.655947 0.5209,-0.405144 0.868166,-0.819935 0.453376,-0.540192 0.578778,-0.617362 0.135048,-0.08682 0.231511,-0.08682 l 0.06752,0.0096 q 0.318327,0.07717 0.318327,0.405144 0,0.144695 -0.125402,0.318328 -0.588423,0.800642 -1.292602,1.514467 -1.649516,1.688101 -3.154337,1.688101 z m 0.279743,-4.485524 q 0.839227,-0.70418 0.839227,-0.974276 0,-0.05788 -0.03858,-0.09646 -0.06752,-0.07717 -0.144695,-0.07717 -0.144694,0 -0.299035,0.26045 -0.250803,0.405144 -0.356912,0.887459 z"
         style="font-style:normal;font-variant:normal;font-weight:normal;font-stretch:normal;font-size:19.7556px;font-family:Roulette;-inkscape-font-specification:'Roulette, Normal';font-variant-ligatures:normal;font-variant-caps:normal;font-variant-numeric:normal;font-variant-east-asian:normal;fill:#ffffff;stroke-width:0.264583"
         id="path21" />
      <path
         d="m 48.03708,49.051064 q -0.241157,0 -0.5209,-0.04823 -1.553052,-0.308681 -1.832795,-1.514467 -0.01929,-0.115755 -0.01929,-0.212218 0,-0.424437 0.289388,-0.704179 0.09646,-0.09646 0.26045,-0.163987 0.163987,-0.06752 0.299035,-0.06752 0.154341,0 0.366559,0.115755 0.212219,0.106109 0.347267,0.26045 0.144694,0.144694 0.279742,0.183279 0.135048,0.02894 0.385852,0.02894 0.704179,0 1.205786,-0.260449 l 0.125401,-0.06752 q -0.646301,-0.173634 -0.887458,-0.270097 -1.099677,-0.41479 -1.360127,-1.389065 -0.03858,-0.173633 -0.03858,-0.347267 0,-0.771703 0.723472,-1.765271 1.186493,-1.514467 2.517681,-1.881026 0.221865,-0.04823 0.424437,-0.04823 0.511253,0 0.897105,0.318327 l 0.135048,0.115756 q 0.549838,-0.395498 0.771703,-0.395498 0.163987,0 0.33762,0.135048 0.173633,0.135048 0.173633,0.376205 0,0.241157 -0.241157,0.810288 l -0.385852,0.839228 q -0.299035,0.655947 -0.665594,0.655947 -0.135048,0 -0.279742,-0.08682 -0.482314,-0.299035 -0.482314,-0.877813 0,-0.15434 0.01929,-0.308681 -0.482314,0.270096 -0.93569,0.742764 -0.443729,0.472669 -0.723472,0.964629 -0.07717,0.135048 -0.07717,0.18328 0,0.02894 0.02894,0.03859 0.02894,0.02894 0.511253,0.144694 2.064306,0.463022 2.064306,1.881027 0,0.67524 -0.655948,1.389065 -0.983921,0.964629 -2.662375,1.19614 -0.231511,0.02894 -0.395498,0.02894 z"
         style="font-style:normal;font-variant:normal;font-weight:normal;font-stretch:normal;font-size:19.7556px;font-family:Roulette;-inkscape-font-specification:'Roulette, Normal';font-variant-ligatures:normal;font-variant-caps:normal;font-variant-numeric:normal;font-variant-east-asian:normal;fill:#ffffff;stroke-width:0.264583"
         id="path23" />
      <path
         d="m 52.570836,53.372601 q -0.733118,0 -0.993568,-1.099677 -0.05788,-0.23151 -0.05788,-0.617362 0,-1.890673 1.311895,-7.533752 0.800642,-3.048227 1.090031,-3.414786 0.356912,-0.443729 0.868166,-0.443729 0.463022,0 0.810288,0.327973 0.125402,0.125402 0.212218,0.318328 0.09646,0.192926 0.09646,0.327974 0,0.07717 0.02894,0.07717 h 0.0096 q 0.877813,-0.395498 1.45659,-0.395498 0.270096,0 0.607716,0.106109 0.26045,0.07717 0.463022,0.173634 0.810288,0.424436 1.167201,1.794209 0.106109,0.405145 0.106109,0.877813 0,0.202572 -0.01929,0.424436 -0.163987,2.045014 -1.524114,3.617359 -0.318328,0.347266 -0.800642,0.636655 -0.829581,0.491961 -1.514467,0.491961 -0.704179,0 -1.225079,-0.491961 -0.221865,-0.192926 -0.347266,-0.366559 -0.07717,-0.115756 -0.115756,-0.115756 -0.05788,0 -0.385852,1.871381 -0.202572,1.1672 -0.289388,1.581991 -0.08682,0.41479 -0.125402,0.646301 -0.08682,0.549839 -0.163987,0.733118 -0.15434,0.376206 -0.41479,0.434083 -0.163987,0.03859 -0.250804,0.03859 z m 2.80707,-6.434074 q 0.356913,0 0.839227,-0.289389 0.424437,-0.241157 0.829581,-0.945336 0.308682,-0.540193 0.463022,-1.090031 0.135048,-0.549839 0.135048,-1.099677 0,-1.466236 -0.800642,-1.466236 -0.41479,0 -1.01286,0.405144 -0.163987,0.106109 -0.231511,0.192926 -0.05788,0.07717 -0.279742,0.916397 -0.318328,1.186494 -0.762057,2.922826 0.453375,0.453376 0.819934,0.453376 z"
         style="font-style:normal;font-variant:normal;font-weight:normal;font-stretch:normal;font-size:19.7556px;font-family:Roulette;-inkscape-font-specification:'Roulette, Normal';font-variant-ligatures:normal;font-variant-caps:normal;font-variant-numeric:normal;font-variant-east-asian:normal;fill:#ffffff;stroke-width:0.264583"
         id="path25" />
      <path
         d="m 61.329665,49.041418 q -0.26045,0 -0.501607,-0.06752 -1.01286,-0.299035 -1.254017,-1.53376 -0.04823,-0.250804 -0.04823,-0.549839 0,-0.443729 0.06752,-0.723472 0.154341,-0.569131 0.733118,-1.475882 l -0.144694,-0.15434 q -0.26045,-0.26045 -0.26045,-0.742765 0,-0.713825 0.385852,-1.254017 1.118969,-1.649516 2.942118,-1.649516 0.482314,0 0.819934,0.154341 0.33762,0.144694 0.713826,0.530546 0.289388,0.289389 0.434083,0.530546 0.15434,0.231511 0.241157,0.540192 0.09646,0.308681 0.09646,0.800642 0,0.964629 -0.424437,2.073952 -0.241157,0.617363 -0.540192,1.128616 -0.93569,1.53376 -2.189708,2.151122 -0.578777,0.241158 -1.070738,0.241158 z m 0.926044,-1.803856 q 0.09646,0 0.202572,-0.04823 0.299035,-0.135048 0.59807,-0.395498 0.299035,-0.270096 0.530546,-0.569131 0.183279,-0.250803 0.405144,-0.704179 0.231511,-0.463022 0.366559,-0.868166 0.144694,-0.405144 0.173633,-0.790996 0.03858,-0.385851 0.03858,-0.501607 0,-0.49196 -0.212218,-0.819934 -0.463022,-0.694533 -1.109323,-0.694533 -0.588424,0 -1.090031,0.501607 -0.250803,0.26045 -0.405144,0.617363 -0.154341,0.347266 -0.154341,0.549838 v 0.06752 h 0.08682 q 0.684886,0 1.022507,0.33762 0.241157,0.241157 0.241157,0.530546 0,0.327974 -0.356913,0.713825 -0.327974,0.347267 -0.569131,0.829581 -0.221865,0.434083 -0.221865,0.723472 0,0.212218 0.154341,0.385852 0.135048,0.135048 0.299035,0.135048 z"
         style="font-style:normal;font-variant:normal;font-weight:normal;font-stretch:normal;font-size:19.7556px;font-family:Roulette;-inkscape-font-specification:'Roulette, Normal';font-variant-ligatures:normal;font-variant-caps:normal;font-variant-numeric:normal;font-variant-east-asian:normal;fill:#ffffff;stroke-width:0.264583"
         id="path27" />
      <path
         d="m 66.924516,49.070357 q -0.713826,0 -0.93569,-0.636656 -0.135048,-0.395497 -0.135048,-1.022506 0,-1.215433 0.241157,-2.633437 0.26045,-1.514468 0.443729,-2.209 0.08682,-0.308682 0.163987,-0.742765 0.05788,-0.33762 0.115755,-0.472668 0.05788,-0.144694 0.173634,-0.241157 0.260449,-0.212218 0.530546,-0.212218 0.163986,0 0.33762,0.07717 0.704179,0.308681 0.704179,1.45659 0,0.482314 -0.08682,0.964629 l -0.0096,0.106109 0.308681,-0.327974 q 0.655948,-0.713825 1.475882,-1.350481 0.916398,-0.742764 1.524114,-0.742764 0.231511,0 0.366559,0.05788 0.135048,0.04823 0.270096,0.202572 0.299035,0.308681 0.299035,0.983921 0,0.59807 -0.472668,2.430865 -0.511253,1.890673 -0.578777,2.401926 -0.06752,0.511254 -0.06752,0.733118 0,0.221865 0.04823,0.327974 0.07717,0.163987 0.07717,0.318328 0,0.33762 -0.26045,0.434083 -0.192925,0.06752 -0.299034,0.06752 -0.279743,0 -0.694533,-0.221865 -0.59807,-0.308681 -0.848874,-1.11897 -0.08682,-0.250803 -0.08682,-0.598069 0,-1.311896 1.118969,-3.983918 0.347267,-0.839227 0.347267,-0.877812 -0.06752,0 -0.684887,0.540192 -1.726686,1.504821 -2.151122,2.845655 -0.463022,1.466236 -0.684887,3.163983 -0.03859,0.279743 -0.549838,0.279743 z"
         style="font-style:normal;font-variant:normal;font-weight:normal;font-stretch:normal;font-size:19.7556px;font-family:Roulette;-inkscape-font-specification:'Roulette, Normal';font-variant-ligatures:normal;font-variant-caps:normal;font-variant-numeric:normal;font-variant-east-asian:normal;fill:#ffffff;stroke-width:0.264583"
         id="path29" />
      <path
         d="m 78.914853,49.157173 q -0.202572,0 -0.318328,-0.04823 -0.212218,-0.09646 -0.434083,-0.356913 -0.212218,-0.270096 -0.33762,-0.59807 -0.250803,-0.646301 -0.376205,-2.073952 -0.144694,0.154341 -0.655948,0.771703 -1.881026,2.189708 -2.96141,2.189708 h -0.06753 q -1.051445,-0.125402 -1.282956,-1.630223 -0.03858,-0.279743 -0.03858,-0.578778 0,-0.819934 0.289389,-1.774917 0.395497,-1.311895 1.186493,-2.401926 1.311895,-1.765271 2.450158,-1.765271 0.279742,0 0.569131,0.10611 0.636655,0.212218 0.964628,1.205786 0.897105,-3.58842 1.080385,-4.022503 0.308681,-0.59807 1.01286,-0.59807 0.665594,0 1.003214,0.59807 0.106109,0.192926 0.106109,0.501607 v 0.192926 q -0.01929,0.192926 -0.202572,0.93569 l -0.684886,2.565913 q -0.03858,0.115755 -0.06752,0.250803 -0.395498,1.427651 -0.78135,3.32797 -0.15434,0.790996 -0.173633,1.331188 l -0.0096,0.41479 q 0,0.241158 0.08682,0.5209 0.106109,0.318328 0.106109,0.472668 0,0.106109 -0.08682,0.241157 -0.07717,0.125402 -0.173633,0.173634 -0.08682,0.04823 -0.202572,0.04823 z m -4.610926,-1.389066 q 0.05788,0 0.270096,-0.115755 0.472668,-0.241157 1.022506,-0.762057 0.607717,-0.569131 1.967843,-2.054659 l 0.06752,-0.665594 0.125402,-0.78135 q -0.41479,-0.530546 -0.607716,-0.549838 -0.18328,-0.02894 -0.221865,-0.02894 -0.299035,0 -0.627008,0.327974 -0.376206,0.366559 -0.675241,0.906751 -0.299035,0.540192 -0.75241,1.601284 -0.549839,1.282956 -0.607716,1.745978 -0.01929,0.163987 -0.01929,0.250804 0,0.125401 0.05788,0.125401 z"
         style="font-style:normal;font-variant:normal;font-weight:normal;font-stretch:normal;font-size:19.7556px;font-family:Roulette;-inkscape-font-specification:'Roulette, Normal';font-variant-ligatures:normal;font-variant-caps:normal;font-variant-numeric:normal;font-variant-east-asian:normal;fill:#ffffff;stroke-width:0.264583"
         id="path31" />
      <path
         d="m 82.512916,49.051064 q -0.366559,0 -0.713825,-0.106109 -1.070738,-0.395498 -1.466236,-1.437297 -0.106109,-0.376206 -0.106109,-1.012861 0,-0.366559 0.03858,-0.684886 0.347267,-2.363341 1.948551,-4.012856 0.858519,-0.887459 1.543406,-0.887459 0.75241,0 1.080384,0.424437 0.26045,0.327974 0.26045,0.839227 0,0.877812 -0.5209,1.813502 -0.790995,1.418005 -2.035367,1.630223 -0.15434,0.59807 -0.15434,1.099677 0,0.569131 0.356912,0.790996 0.125402,0.07717 0.327974,0.07717 0.347267,-0.0096 0.926044,-0.289389 0.511253,-0.260449 1.022507,-0.655947 0.520899,-0.405144 0.868166,-0.819935 0.453375,-0.540192 0.578777,-0.617362 0.135048,-0.08682 0.231511,-0.08682 l 0.06752,0.0096 q 0.318327,0.07717 0.318327,0.405144 0,0.144695 -0.125401,0.318328 -0.588424,0.800642 -1.292603,1.514467 -1.649515,1.688101 -3.154337,1.688101 z m 0.279743,-4.485524 q 0.839227,-0.70418 0.839227,-0.974276 0,-0.05788 -0.03858,-0.09646 -0.06752,-0.07717 -0.144694,-0.07717 -0.144695,0 -0.299035,0.26045 -0.250804,0.405144 -0.356913,0.887459 z"
         style="font-style:normal;font-variant:normal;font-weight:normal;font-stretch:normal;font-size:19.7556px;font-family:Roulette;-inkscape-font-specification:'Roulette, Normal';font-variant-ligatures:normal;font-variant-caps:normal;font-variant-numeric:normal;font-variant-east-asian:normal;fill:#ffffff;stroke-width:0.264583"
         id="path33" />
      <path
         d="m 92.58364,49.041418 q -0.26045,0 -0.501607,-0.06752 -1.01286,-0.299035 -1.254017,-1.53376 -0.04823,-0.250804 -0.04823,-0.549839 0,-0.443729 0.06752,-0.723472 0.154341,-0.569131 0.733118,-1.475882 l -0.144694,-0.15434 q -0.26045,-0.26045 -0.26045,-0.742765 0,-0.713825 0.385852,-1.254017 1.118969,-1.649516 2.942118,-1.649516 0.482314,0 0.819934,0.154341 0.33762,0.144694 0.713826,0.530546 0.289388,0.289389 0.434083,0.530546 0.15434,0.231511 0.241157,0.540192 0.09646,0.308681 0.09646,0.800642 0,0.964629 -0.424437,2.073952 -0.241157,0.617363 -0.540192,1.128616 -0.93569,1.53376 -2.189708,2.151122 -0.578777,0.241158 -1.070738,0.241158 z m 0.926044,-1.803856 q 0.09646,0 0.202572,-0.04823 0.299035,-0.135048 0.59807,-0.395498 0.299035,-0.270096 0.530546,-0.569131 0.183279,-0.250803 0.405144,-0.704179 0.231511,-0.463022 0.366559,-0.868166 0.144694,-0.405144 0.173633,-0.790996 0.03858,-0.385851 0.03858,-0.501607 0,-0.49196 -0.212218,-0.819934 -0.463022,-0.694533 -1.109323,-0.694533 -0.588424,0 -1.090031,0.501607 -0.250803,0.26045 -0.405144,0.617363 -0.154341,0.347266 -0.154341,0.549838 v 0.06752 h 0.08682 q 0.684886,0 1.022506,0.33762 0.241158,0.241157 0.241158,0.530546 0,0.327974 -0.356913,0.713825 -0.327974,0.347267 -0.569131,0.829581 -0.221865,0.434083 -0.221865,0.723472 0,0.212218 0.154341,0.385852 0.135048,0.135048 0.299035,0.135048 z"
         style="font-style:normal;font-variant:normal;font-weight:normal;font-stretch:normal;font-size:19.7556px;font-family:Roulette;-inkscape-font-specification:'Roulette, Normal';font-variant-ligatures:normal;font-variant-caps:normal;font-variant-numeric:normal;font-variant-east-asian:normal;fill:#ffffff;stroke-width:0.264583"
         id="path35" />
      <path
         d="m 108.76047,53.613759 q -0.47267,0 -0.7717,-0.04823 -0.73312,-0.106109 -2.38264,-0.926044 -0.70418,-0.356912 -1.0418,-0.482314 -0.47266,-0.173633 -1.19614,-0.173633 -0.20257,0 -0.28939,0.04823 -0.0579,0.02894 -0.13504,0.106109 -0.54984,0.491961 -1.13827,0.790996 l -0.36655,0.173633 q -0.74277,0 -0.85852,-0.0096 -0.19293,0 -0.35692,-0.07717 -0.636652,-0.33762 -0.636652,-0.993568 0,-0.530546 0.414792,-0.906751 0.56913,-0.549839 1.53376,-0.646302 l 0.2508,-0.02894 q 0.45338,-1.63987 0.75241,-2.498389 0.76206,-2.31511 1.39871,-5.884237 0.35692,-2.045013 0.64631,-3.308677 0.30868,-1.147908 1.12861,-1.147908 0.71383,0 0.98392,0.819934 0.0675,0.18328 0.0675,0.59807 0,0.549839 -0.11576,1.475883 -0.27009,2.112537 -0.53054,3.578773 -0.26045,1.456589 -0.64631,2.961411 -0.58842,2.382633 -1.24437,3.491956 -0.11575,0.18328 -0.11575,0.231511 l 0.01,0.0096 q 0.10611,0 0.80065,0.06752 0.23151,0.02894 0.30868,0.04823 1.14791,0.241157 2.209,0.356913 0.3955,0.03858 0.66559,0.03858 0.37621,0 1.61093,-0.09646 0.44373,-0.02894 0.791,-0.02894 0.10611,0 0.2508,0.05788 0.19293,0.09646 0.29904,0.231511 0.10611,0.135048 0.10611,0.434083 l 0.01,0.212218 q -0.01,0.154341 -0.13505,0.376205 -0.47266,0.887459 -1.50482,1.099677 -0.29903,0.04823 -0.7717,0.04823 z m -8.0643,-1.755625 q 0.0675,0 0.27974,-0.135048 0.12541,-0.07717 0.12541,-0.106109 h -0.01 q -0.0289,0 -0.19293,0.07717 -0.17363,0.08682 -0.22186,0.135048 v 0.01929 q 0,0.0096 0.0193,0.0096 z"
         style="font-style:normal;font-variant:normal;font-weight:normal;font-stretch:normal;font-size:19.7556px;font-family:Roulette;-inkscape-font-specification:'Roulette, Normal';font-variant-ligatures:normal;font-variant-caps:normal;font-variant-numeric:normal;font-variant-east-asian:normal;fill:#ffffff;stroke-width:0.264583"
         id="path37" />
      <path
         d="m 107.61256,49.031771 q -0.13505,0 -0.27974,-0.03858 -0.81994,-0.26045 -1.0418,-1.514467 -0.0482,-0.279743 -0.0482,-0.578778 0,-0.627008 0.29903,-1.668808 0.40515,-1.446943 1.27331,-2.604498 0.96463,-1.35048 1.81351,-1.630222 0.35691,-0.09646 0.61736,-0.09646 0.16398,0 0.30868,0.04823 0.46302,0.154341 0.72347,0.434083 l 0.14469,0.163987 q 0.31833,-0.06752 0.4148,-0.06752 0.44372,0 0.72347,0.434083 0.22186,0.279742 0.22186,0.694533 0,0.868166 -0.67524,3.395494 -0.34726,1.398711 -0.34726,1.639869 0,0.135048 0.0868,0.135048 0.22187,0 1.11897,-1.234725 0.90675,-1.244372 1.01286,-1.331188 0.10611,-0.08682 0.26045,-0.08682 0.1447,0 0.2508,0.09646 0.1447,0.135048 0.1447,0.327974 -0.0193,0.154341 -1.08039,1.803856 -1.06109,1.639869 -2.11253,1.639869 -0.28939,0 -0.58843,-0.183279 -0.42443,-0.270096 -0.627,-0.78135 -0.0868,-0.221864 -0.17364,-1.572345 -1.31189,2.575559 -2.44051,2.575559 z m 0.7717,-2.054659 q 0.18328,0 0.58843,-0.655948 1.49517,-2.411572 1.97749,-4.070734 -0.29904,-0.144694 -0.5209,-0.144694 -0.29904,0 -0.48232,0.26045 -0.76205,1.147908 -1.17684,2.401926 -0.50161,1.495174 -0.50161,1.987135 0,0.221865 0.11575,0.221865 z m 2.36334,-6.260442 q -0.1254,0 -0.24115,-0.05788 -0.11576,-0.06752 -0.19293,-0.183279 -0.0675,-0.125402 -0.0772,-0.241157 0,-0.405144 0.7717,-0.906751 0.24116,-0.154341 0.36656,-0.231511 0.13505,-0.07717 0.21222,-0.09646 0.0772,-0.02894 0.15434,-0.02894 0.58843,0 0.58843,0.559485 0,0.183279 -0.13505,0.356912 -0.22187,0.221865 -0.77171,0.559485 -0.42443,0.270096 -0.67524,0.270096 z"
         style="font-style:normal;font-variant:normal;font-weight:normal;font-stretch:normal;font-size:19.7556px;font-family:Roulette;-inkscape-font-specification:'Roulette, Normal';font-variant-ligatures:normal;font-variant-caps:normal;font-variant-numeric:normal;font-variant-east-asian:normal;fill:#ffffff;stroke-width:0.264583"
         id="path39" />
      <path
         d="m 115.14631,49.041418 q -0.34726,0 -0.86816,-0.482315 -0.62701,-0.578777 -0.62701,-1.6881 v -0.202572 q 0,-0.771704 0.41479,-2.05466 0.29903,-0.897105 0.40514,-1.321542 0.10611,-0.424436 0.12541,-0.781349 0.1061,-1.321542 0.27974,-1.572345 0.10611,-0.154341 0.30868,-0.26045 0.21222,-0.115755 0.44373,-0.115755 0.79099,0 1.15755,1.041799 0.1447,0.434083 0.1447,0.790995 0,0.04823 0.0289,0.04823 0.0289,0 0.35691,-0.327974 0.76206,-0.733118 1.25402,-0.974275 0.43408,-0.221865 0.86816,-0.221865 0.2701,0 0.47267,0.09646 0.59807,0.356913 0.59807,1.215433 0,0.173633 -0.0289,0.366559 -0.0482,0.241157 -0.20257,0.684886 -0.15434,0.443729 -0.26045,0.742764 -0.10611,0.289389 -0.10611,0.414791 0,0.135048 0.0868,0.192926 0.16398,0.115755 0.16398,0.241157 0,0.299035 -0.26045,0.443729 -0.0772,0.03858 -0.18328,0.03858 -0.0579,0 -0.16398,-0.01929 -0.50161,-0.09646 -0.81029,-0.44373 -0.49196,-0.549838 -0.49196,-1.340834 0,-0.376205 0.10611,-0.800642 0.0965,-0.347266 0.0965,-0.41479 v -0.01929 q -0.0482,0 -0.41479,0.347267 -0.6463,0.627008 -1.08038,1.398711 -0.44373,0.733118 -0.92605,2.006429 -0.47267,1.234725 -0.47267,2.006428 0,0.250803 0.0579,0.41479 0.0193,0.06752 0.0193,0.135048 0,0.221865 -0.29903,0.366559 -0.0868,0.04823 -0.19293,0.04823 z"
         style="font-style:normal;font-variant:normal;font-weight:normal;font-stretch:normal;font-size:19.7556px;font-family:Roulette;-inkscape-font-specification:'Roulette, Normal';font-variant-ligatures:normal;font-variant-caps:normal;font-variant-numeric:normal;font-variant-east-asian:normal;fill:#ffffff;stroke-width:0.264583"
         id="path41" />
      <path
         d="m 121.89872,52.774531 q -0.13505,0 -0.2701,-0.02894 -0.60771,-0.144695 -0.81029,-0.655948 -0.0193,-0.08682 -0.14469,-0.395498 -0.0868,-0.241157 -0.0868,-0.347266 0,-0.173633 0.1254,-0.299035 0.12541,-0.135048 0.29904,-0.135048 0.24116,0 0.41479,0.327974 0.0675,0.163986 0.14469,0.163986 0.0675,0 0.28939,-0.15434 0.42444,-0.279743 0.791,-0.810288 0.3762,-0.540193 0.81993,-1.360127 0.38586,-0.723472 0.68489,-1.45659 l -0.17363,0.202572 q -1.09968,1.244372 -2.17042,1.244372 -0.20257,0 -0.40514,-0.04823 -1.36978,-0.376205 -1.36978,-2.102891 0,-0.578777 0.24116,-1.254018 0.75241,-2.131829 2.29582,-3.655943 1.10932,-1.099677 2.28617,-1.099677 h 0.14469 q 0.36656,0 0.57878,0.115755 0.43408,0.212219 0.57878,0.627009 0.0772,0.202572 0.0772,0.385852 0,0.279742 -0.19293,0.501607 -0.18328,0.183279 -0.5209,0.183279 -0.62701,0 -1.2926,0.684887 -0.791,0.819934 -1.36013,1.938904 -0.59807,1.176847 -0.59807,1.958197 0,0.115755 0.0579,0.115755 0.0675,0 0.2508,-0.106109 0.95499,-0.491961 2.02573,-1.900319 0.42443,-0.549839 0.60771,-0.897105 0.28939,-0.588424 0.54984,-0.829581 0.29904,-0.289388 0.48231,-0.308681 0.19293,-0.02894 0.24116,-0.02894 0.26045,0 0.43409,0.192926 0.0868,0.08682 0.0868,0.231511 0,0.511253 -0.1254,1.427651 -0.60772,4.456585 -2.43086,6.241149 -0.71383,0.694532 -1.39872,1.01286 -0.68488,0.318327 -1.15755,0.318327 z"
         style="font-style:normal;font-variant:normal;font-weight:normal;font-stretch:normal;font-size:19.7556px;font-family:Roulette;-inkscape-font-specification:'Roulette, Normal';font-variant-ligatures:normal;font-variant-caps:normal;font-variant-numeric:normal;font-variant-east-asian:normal;fill:#ffffff;stroke-width:0.264583"
         id="path43" />
      <path
         d="m 128.83439,49.031771 q -0.13504,0 -0.27974,-0.03858 -0.81993,-0.26045 -1.0418,-1.514467 -0.0482,-0.279743 -0.0482,-0.578778 0,-0.627008 0.29903,-1.668808 0.40515,-1.446943 1.27332,-2.604498 0.96462,-1.35048 1.8135,-1.630222 0.35691,-0.09646 0.61736,-0.09646 0.16399,0 0.30868,0.04823 0.46302,0.154341 0.72347,0.434083 l 0.1447,0.163987 q 0.31832,-0.06752 0.41479,-0.06752 0.44373,0 0.72347,0.434083 0.22186,0.279742 0.22186,0.694533 0,0.868166 -0.67524,3.395494 -0.34726,1.398711 -0.34726,1.639869 0,0.135048 0.0868,0.135048 0.22187,0 1.11897,-1.234725 0.90675,-1.244372 1.01286,-1.331188 0.10611,-0.08682 0.26045,-0.08682 0.1447,0 0.25081,0.09646 0.14469,0.135048 0.14469,0.327974 -0.0193,0.154341 -1.08038,1.803856 -1.06109,1.639869 -2.11254,1.639869 -0.28939,0 -0.58842,-0.183279 -0.42444,-0.270096 -0.62701,-0.78135 -0.0868,-0.221864 -0.17364,-1.572345 -1.31189,2.575559 -2.44051,2.575559 z m 0.77171,-2.054659 q 0.18328,0 0.58842,-0.655948 1.49517,-2.411572 1.97749,-4.070734 -0.29904,-0.144694 -0.5209,-0.144694 -0.29904,0 -0.48232,0.26045 -0.76205,1.147908 -1.17684,2.401926 -0.50161,1.495174 -0.50161,1.987135 0,0.221865 0.11576,0.221865 z"
         style="font-style:normal;font-variant:normal;font-weight:normal;font-stretch:normal;font-size:19.7556px;font-family:Roulette;-inkscape-font-specification:'Roulette, Normal';font-variant-ligatures:normal;font-variant-caps:normal;font-variant-numeric:normal;font-variant-east-asian:normal;fill:#ffffff;stroke-width:0.264583"
         id="path45" />
      <path
         d="m 137.10126,49.234343 q -0.23151,0 -0.46302,-0.06752 -1.36012,-0.530546 -1.5627,-2.440511 l -0.01,-0.33762 q 0,-2.334402 1.46623,-5.768481 0.13505,-0.289388 0.13505,-0.327974 0,-0.02894 -0.24116,-0.07717 -0.60771,-0.125402 -0.83922,-0.405144 -0.22187,-0.289389 -0.22187,-0.540192 0,-0.318328 0.24116,-0.491961 0.11575,-0.08682 0.22186,-0.08682 0.10611,0 0.27975,0.10611 0.0675,0.04823 0.0675,0.07717 0,0.115755 0.7717,0.115755 0.3955,0 0.42444,-0.01929 0.0386,-0.02894 0.0579,-0.07717 0.3955,-0.530546 0.84887,-0.530546 0.45338,0 0.69453,0.463022 0.0386,0.106109 0.17364,0.125401 0.0772,0.01929 0.26045,0.03858 0.68488,0.08682 1.05144,0.289389 0.1254,0.07717 0.28939,0.26045 0.17363,0.183279 0.2508,0.318327 0.0482,0.09646 0.0482,0.202573 -0.01,0.106109 -0.0675,0.192925 -0.11575,0.18328 -0.22186,0.192926 -0.10611,0.0096 -0.1254,0.0096 -0.20258,0 -0.58843,-0.135048 -0.18328,-0.06752 -0.34726,-0.06752 -0.23152,0 -0.59807,0.02894 -0.20258,0.02894 -0.25081,0.09646 -0.0482,0.05788 -0.18328,0.453376 -0.40514,1.205786 -0.84887,2.816716 -0.21222,0.771703 -0.34727,1.485529 -0.26045,1.340834 -0.26045,2.218646 0,0.59807 0.17364,0.59807 0.16398,0 0.51125,-0.26045 0.60772,-0.453375 1.27331,-1.340834 l 0.34727,-0.482314 q 0.44373,-0.607717 0.58842,-0.684887 0.0868,-0.04823 0.20257,-0.04823 0.23151,0 0.32798,0.144694 0.0965,0.135048 0.0965,0.250803 0,0.08682 -0.0386,0.173634 -0.0386,0.07717 -0.2508,0.385851 -0.20257,0.308681 -0.49196,0.704179 -0.27974,0.395498 -0.54019,0.733118 -0.41479,0.549839 -0.83923,0.964629 -0.41479,0.405144 -0.72347,0.559485 -0.36656,0.183279 -0.74277,0.183279 z"
         style="font-style:normal;font-variant:normal;font-weight:normal;font-stretch:normal;font-size:19.7556px;font-family:Roulette;-inkscape-font-specification:'Roulette, Normal';font-variant-ligatures:normal;font-variant-caps:normal;font-variant-numeric:normal;font-variant-east-asian:normal;fill:#ffffff;stroke-width:0.264583"
         id="path47" />
      <path
         d="m 142.12698,49.051064 q -0.36656,0 -0.71382,-0.106109 -1.07074,-0.395498 -1.46624,-1.437297 -0.10611,-0.376206 -0.10611,-1.012861 0,-0.366559 0.0386,-0.684886 0.34726,-2.363341 1.94855,-4.012856 0.85852,-0.887459 1.5434,-0.887459 0.75242,0 1.08039,0.424437 0.26045,0.327974 0.26045,0.839227 0,0.877812 -0.5209,1.813502 -0.791,1.418005 -2.03537,1.630223 -0.15434,0.59807 -0.15434,1.099677 0,0.569131 0.35691,0.790996 0.12541,0.07717 0.32798,0.07717 0.34726,-0.0096 0.92604,-0.289389 0.51126,-0.260449 1.02251,-0.655947 0.5209,-0.405144 0.86816,-0.819935 0.45338,-0.540192 0.57878,-0.617362 0.13505,-0.08682 0.23151,-0.08682 l 0.0675,0.0096 q 0.31832,0.07717 0.31832,0.405144 0,0.144695 -0.1254,0.318328 -0.58842,0.800642 -1.2926,1.514467 -1.64952,1.688101 -3.15434,1.688101 z m 0.27975,-4.485524 q 0.83922,-0.70418 0.83922,-0.974276 0,-0.05788 -0.0386,-0.09646 -0.0675,-0.07717 -0.1447,-0.07717 -0.14469,0 -0.29903,0.26045 -0.2508,0.405144 -0.35691,0.887459 z"
         style="font-style:normal;font-variant:normal;font-weight:normal;font-stretch:normal;font-size:19.7556px;font-family:Roulette;-inkscape-font-specification:'Roulette, Normal';font-variant-ligatures:normal;font-variant-caps:normal;font-variant-numeric:normal;font-variant-east-asian:normal;fill:#ffffff;stroke-width:0.264583"
         id="path49" />
      <path
         d="m 147.22022,51.385466 q -0.47267,0 -0.82958,-0.33762 -0.27009,-0.241157 -0.35691,-0.67524 -0.0386,-0.221865 -0.0386,-0.356913 v -0.04823 q 0.0868,-0.520899 0.43409,-0.771703 0.35691,-0.26045 0.70418,-0.26045 0.11575,0 0.24115,0.02894 0.81029,0.202572 0.96463,1.061092 l 0.01,0.173633 q 0,0.530546 -0.34727,0.877813 -0.26045,0.241157 -0.48231,0.279742 -0.21222,0.02894 -0.29904,0.02894 z m 0.54019,-2.884241 q -0.34726,0 -0.57877,-0.520899 -0.18328,-0.385852 -0.18328,-0.983922 0,-2.02572 1.4373,-6.21221 0.27974,-0.810288 0.40514,-1.070738 0.19292,-0.385851 0.36656,-0.819934 0.28939,-0.694533 0.40514,-0.868166 0.30868,-0.463022 0.85852,-0.463022 0.49196,0 0.78135,0.347266 0.29904,0.347266 0.29904,0.713825 0,0.173634 -0.11576,0.472669 l -0.17363,0.453375 q -0.22187,0.549839 -0.30868,0.906751 -0.12541,0.414791 -0.57878,1.697747 -0.65595,1.79421 -1.54341,4.533756 -0.29903,0.926044 -0.49196,1.311895 -0.2508,0.501607 -0.57878,0.501607 z"
         style="font-style:normal;font-variant:normal;font-weight:normal;font-stretch:normal;font-size:19.7556px;font-family:Roulette;-inkscape-font-specification:'Roulette, Normal';font-variant-ligatures:normal;font-variant-caps:normal;font-variant-numeric:normal;font-variant-east-asian:normal;fill:#ffffff;stroke-width:0.264583"
         id="path51" />
    </g>
  </g>
</svg>
